<?xml version="1.0" encoding="utf-8"?>
<!-- Generator: Adobe Illustrator 25.2.1, SVG Export Plug-In . SVG Version: 6.00 Build 0)  -->
<svg version="1.1" id="Capa_1" xmlns="http://www.w3.org/2000/svg" xmlns:xlink="http://www.w3.org/1999/xlink" x="0px" y="0px"
	 viewBox="0 0 1920 1080" style="enable-background:new 0 0 1920 1080;" xml:space="preserve">
<style type="text/css">
	.st0{fill:#FFFFFF;}
</style>
<g>
	<path class="st0" d="M-130.11,114.1c1.6,0.97,3.36,1.44,5.11,1.44c3.32,0,6.56-1.68,8.41-4.72L92.08-231.97l207.83,341.39
		c0.77,1.88,2.11,3.54,3.98,4.67c1.6,0.97,3.36,1.44,5.11,1.44c0.03,0,0.06-0.01,0.09-0.01c0.03,0,0.06,0.01,0.09,0.01
		c1.74,0,3.51-0.46,5.11-1.44c1.86-1.13,3.21-2.79,3.97-4.67l207.83-341.39l207.83,341.39c0.77,1.88,2.11,3.54,3.98,4.67
		c1.6,0.97,3.36,1.44,5.11,1.44c0.03,0,0.06-0.01,0.09-0.01c0.03,0,0.06,0.01,0.09,0.01c1.74,0,3.51-0.46,5.11-1.44
		c1.86-1.13,3.21-2.79,3.97-4.67l207.83-341.39l207.83,341.39c0.77,1.88,2.11,3.54,3.98,4.67c1.6,0.97,3.36,1.44,5.11,1.44
		c0.03,0,0.06-0.01,0.09-0.01c0.03,0,0.06,0.01,0.09,0.01c1.74,0,3.51-0.46,5.11-1.44c1.86-1.13,3.21-2.79,3.97-4.67l207.83-341.39
		l207.83,341.39c0.77,1.88,2.11,3.54,3.98,4.67c1.6,0.97,3.36,1.44,5.11,1.44c0.03,0,0.06-0.01,0.09-0.01
		c0.03,0,0.06,0.01,0.09,0.01c1.74,0,3.51-0.46,5.11-1.44c1.86-1.13,3.21-2.79,3.97-4.67l207.83-341.39l208.68,342.78
		c1.85,3.04,5.09,4.72,8.41,4.72c1.74,0,3.51-0.46,5.11-1.44c4.64-2.83,6.11-8.88,3.29-13.52l-216.94-356.36
		c-1.86-3.06-5.14-4.73-8.48-4.71c-3.38-0.06-6.71,1.61-8.6,4.71L1611.08,86.65l-208.46-342.43c-1.86-3.06-5.14-4.73-8.48-4.71
		c-3.38-0.06-6.71,1.61-8.6,4.71L1177.08,86.65L968.62-255.78c-1.86-3.06-5.14-4.73-8.48-4.71c-3.38-0.06-6.71,1.61-8.6,4.71
		L743.08,86.65L534.62-255.78c-1.86-3.06-5.14-4.73-8.48-4.71c-3.38-0.06-6.71,1.61-8.6,4.71L309.08,86.65L100.62-255.78
		c-1.86-3.06-5.14-4.73-8.48-4.71c-3.38-0.06-6.71,1.61-8.6,4.71l-216.94,356.36C-136.22,105.22-134.75,111.27-130.11,114.1z"/>
	<path class="st0" d="M1836.62-149.78c-1.86-3.06-5.14-4.73-8.48-4.71c-3.38-0.06-6.71,1.61-8.6,4.71l-208.46,342.43l-208.46-342.43
		c-1.86-3.06-5.14-4.73-8.48-4.71c-3.38-0.06-6.71,1.61-8.6,4.71l-208.46,342.43L968.62-149.78c-1.86-3.06-5.14-4.73-8.48-4.71
		c-3.38-0.06-6.71,1.61-8.6,4.71L743.08,192.65L534.62-149.78c-1.86-3.06-5.14-4.73-8.48-4.71c-3.38-0.06-6.71,1.61-8.6,4.71
		L309.08,192.65L100.62-149.78c-1.86-3.06-5.14-4.73-8.48-4.71c-3.38-0.06-6.71,1.61-8.6,4.71l-216.94,356.36
		c-2.82,4.64-1.35,10.69,3.29,13.52c1.6,0.97,3.36,1.44,5.11,1.44c3.32,0,6.56-1.68,8.41-4.72L92.08-125.97l207.83,341.39
		c0.77,1.88,2.11,3.54,3.98,4.67c1.6,0.97,3.36,1.44,5.11,1.44c0.03,0,0.06-0.01,0.09-0.01c0.03,0,0.06,0.01,0.09,0.01
		c1.74,0,3.51-0.46,5.11-1.44c1.86-1.13,3.21-2.79,3.97-4.67l207.83-341.39l207.83,341.39c0.77,1.88,2.11,3.54,3.98,4.67
		c1.6,0.97,3.36,1.44,5.11,1.44c0.03,0,0.06-0.01,0.09-0.01c0.03,0,0.06,0.01,0.09,0.01c1.74,0,3.51-0.46,5.11-1.44
		c1.86-1.13,3.21-2.79,3.97-4.67l207.83-341.39l207.83,341.39c0.77,1.88,2.11,3.54,3.98,4.67c1.6,0.97,3.36,1.44,5.11,1.44
		c0.03,0,0.06-0.01,0.09-0.01c0.03,0,0.06,0.01,0.09,0.01c1.74,0,3.51-0.46,5.11-1.44c1.86-1.13,3.21-2.79,3.97-4.67l207.83-341.39
		l207.83,341.39c0.77,1.88,2.11,3.54,3.98,4.67c1.6,0.97,3.36,1.44,5.11,1.44c0.03,0,0.06-0.01,0.09-0.01
		c0.03,0,0.06,0.01,0.09,0.01c1.74,0,3.51-0.46,5.11-1.44c1.86-1.13,3.21-2.79,3.97-4.67l207.83-341.39l208.68,342.78
		c1.85,3.04,5.09,4.72,8.41,4.72c1.74,0,3.51-0.46,5.11-1.44c4.64-2.83,6.11-8.88,3.29-13.52L1836.62-149.78z"/>
	<path class="st0" d="M1836.62-43.78c-1.86-3.06-5.14-4.73-8.48-4.71c-3.38-0.06-6.71,1.61-8.6,4.71l-208.46,342.43L1402.62-43.78
		c-1.86-3.06-5.14-4.73-8.48-4.71c-3.38-0.06-6.71,1.61-8.6,4.71l-208.46,342.43L968.62-43.78c-1.86-3.06-5.14-4.73-8.48-4.71
		c-3.38-0.06-6.71,1.61-8.6,4.71L743.08,298.65L534.62-43.78c-1.86-3.06-5.14-4.73-8.48-4.71c-3.38-0.06-6.71,1.61-8.6,4.71
		L309.08,298.65L100.62-43.78c-1.86-3.06-5.14-4.73-8.48-4.71c-3.38-0.06-6.71,1.61-8.6,4.71l-216.94,356.36
		c-2.82,4.64-1.35,10.69,3.29,13.52c1.6,0.97,3.36,1.44,5.11,1.44c3.32,0,6.56-1.68,8.41-4.72L92.08-19.97l207.83,341.39
		c0.77,1.88,2.11,3.54,3.98,4.67c1.6,0.97,3.36,1.44,5.11,1.44c0.03,0,0.06-0.01,0.09-0.01c0.03,0,0.06,0.01,0.09,0.01
		c1.74,0,3.51-0.46,5.11-1.44c1.86-1.13,3.21-2.79,3.97-4.67L526.08-19.97l207.83,341.39c0.77,1.88,2.11,3.54,3.98,4.67
		c1.6,0.97,3.36,1.44,5.11,1.44c0.03,0,0.06-0.01,0.09-0.01c0.03,0,0.06,0.01,0.09,0.01c1.74,0,3.51-0.46,5.11-1.44
		c1.86-1.13,3.21-2.79,3.97-4.67L960.08-19.97l207.83,341.39c0.77,1.88,2.11,3.54,3.98,4.67c1.6,0.97,3.36,1.44,5.11,1.44
		c0.03,0,0.06-0.01,0.09-0.01c0.03,0,0.06,0.01,0.09,0.01c1.74,0,3.51-0.46,5.11-1.44c1.86-1.13,3.21-2.79,3.97-4.67l207.83-341.39
		l207.83,341.39c0.77,1.88,2.11,3.54,3.98,4.67c1.6,0.97,3.36,1.44,5.11,1.44c0.03,0,0.06-0.01,0.09-0.01
		c0.03,0,0.06,0.01,0.09,0.01c1.74,0,3.51-0.46,5.11-1.44c1.86-1.13,3.21-2.79,3.97-4.67l207.83-341.39l208.68,342.78
		c1.85,3.04,5.09,4.72,8.41,4.72c1.74,0,3.51-0.46,5.11-1.44c4.64-2.83,6.11-8.88,3.29-13.52L1836.62-43.78z"/>
	<path class="st0" d="M1836.62,62.22c-1.86-3.06-5.14-4.73-8.48-4.71c-3.38-0.06-6.71,1.61-8.6,4.71l-208.46,342.43L1402.62,62.22
		c-1.86-3.06-5.14-4.73-8.48-4.71c-3.38-0.06-6.71,1.61-8.6,4.71l-208.46,342.43L968.62,62.22c-1.86-3.06-5.14-4.73-8.48-4.71
		c-3.38-0.06-6.71,1.61-8.6,4.71L743.08,404.65L534.62,62.22c-1.86-3.06-5.14-4.73-8.48-4.71c-3.38-0.06-6.71,1.61-8.6,4.71
		L309.08,404.65L100.62,62.22c-1.86-3.06-5.14-4.73-8.48-4.71c-3.38-0.06-6.71,1.61-8.6,4.71l-216.94,356.36
		c-2.82,4.64-1.35,10.69,3.29,13.52c1.6,0.97,3.36,1.44,5.11,1.44c3.32,0,6.56-1.68,8.41-4.72L92.08,86.03l207.83,341.39
		c0.77,1.88,2.11,3.54,3.98,4.67c1.6,0.97,3.36,1.44,5.11,1.44c0.03,0,0.06-0.01,0.09-0.01c0.03,0,0.06,0.01,0.09,0.01
		c1.74,0,3.51-0.46,5.11-1.44c1.86-1.13,3.21-2.79,3.97-4.67L526.08,86.03l207.83,341.39c0.77,1.88,2.11,3.54,3.98,4.67
		c1.6,0.97,3.36,1.44,5.11,1.44c0.03,0,0.06-0.01,0.09-0.01c0.03,0,0.06,0.01,0.09,0.01c1.74,0,3.51-0.46,5.11-1.44
		c1.86-1.13,3.21-2.79,3.97-4.67L960.08,86.03l207.83,341.39c0.77,1.88,2.11,3.54,3.98,4.67c1.6,0.97,3.36,1.44,5.11,1.44
		c0.03,0,0.06-0.01,0.09-0.01c0.03,0,0.06,0.01,0.09,0.01c1.74,0,3.51-0.46,5.11-1.44c1.86-1.13,3.21-2.79,3.97-4.67l207.83-341.39
		l207.83,341.39c0.77,1.88,2.11,3.54,3.98,4.67c1.6,0.97,3.36,1.44,5.11,1.44c0.03,0,0.06-0.01,0.09-0.01
		c0.03,0,0.06,0.01,0.09,0.01c1.74,0,3.51-0.46,5.11-1.44c1.86-1.13,3.21-2.79,3.97-4.67l207.83-341.39l208.68,342.78
		c1.85,3.04,5.09,4.72,8.41,4.72c1.74,0,3.51-0.46,5.11-1.44c4.64-2.83,6.11-8.88,3.29-13.52L1836.62,62.22z"/>
	<path class="st0" d="M1836.62,168.22c-1.86-3.06-5.14-4.73-8.48-4.71c-3.38-0.06-6.71,1.61-8.6,4.71l-208.46,342.43l-208.46-342.43
		c-1.86-3.06-5.14-4.73-8.48-4.71c-3.38-0.06-6.71,1.61-8.6,4.71l-208.46,342.43L968.62,168.22c-1.86-3.06-5.14-4.73-8.48-4.71
		c-3.38-0.06-6.71,1.61-8.6,4.71L743.08,510.65L534.62,168.22c-1.86-3.06-5.14-4.73-8.48-4.71c-3.38-0.06-6.71,1.61-8.6,4.71
		L309.08,510.65L100.62,168.22c-1.86-3.06-5.14-4.73-8.48-4.71c-3.38-0.06-6.71,1.61-8.6,4.71l-216.94,356.36
		c-2.82,4.64-1.35,10.69,3.29,13.52c1.6,0.97,3.36,1.44,5.11,1.44c3.32,0,6.56-1.68,8.41-4.72L92.08,192.03l207.83,341.39
		c0.77,1.88,2.11,3.54,3.98,4.67c1.6,0.97,3.36,1.44,5.11,1.44c0.03,0,0.06-0.01,0.09-0.01c0.03,0,0.06,0.01,0.09,0.01
		c1.74,0,3.51-0.46,5.11-1.44c1.86-1.13,3.21-2.79,3.97-4.67l207.83-341.39l207.83,341.39c0.77,1.88,2.11,3.54,3.98,4.67
		c1.6,0.97,3.36,1.44,5.11,1.44c0.03,0,0.06-0.01,0.09-0.01c0.03,0,0.06,0.01,0.09,0.01c1.74,0,3.51-0.46,5.11-1.44
		c1.86-1.13,3.21-2.79,3.97-4.67l207.83-341.39l207.83,341.39c0.77,1.88,2.11,3.54,3.98,4.67c1.6,0.97,3.36,1.44,5.11,1.44
		c0.03,0,0.06-0.01,0.09-0.01c0.03,0,0.06,0.01,0.09,0.01c1.74,0,3.51-0.46,5.11-1.44c1.86-1.13,3.21-2.79,3.97-4.67l207.83-341.39
		l207.83,341.39c0.77,1.88,2.11,3.54,3.98,4.67c1.6,0.97,3.36,1.44,5.11,1.44c0.03,0,0.06-0.01,0.09-0.01
		c0.03,0,0.06,0.01,0.09,0.01c1.74,0,3.51-0.46,5.11-1.44c1.86-1.13,3.21-2.79,3.97-4.67l207.83-341.39l208.68,342.78
		c1.85,3.04,5.09,4.72,8.41,4.72c1.74,0,3.51-0.46,5.11-1.44c4.64-2.83,6.11-8.88,3.29-13.52L1836.62,168.22z"/>
	<path class="st0" d="M1836.62,274.22c-1.86-3.06-5.14-4.73-8.48-4.71c-3.38-0.06-6.71,1.61-8.6,4.71l-208.46,342.43l-208.46-342.43
		c-1.86-3.06-5.14-4.73-8.48-4.71c-3.38-0.06-6.71,1.61-8.6,4.71l-208.46,342.43L968.62,274.22c-1.86-3.06-5.14-4.73-8.48-4.71
		c-3.38-0.06-6.71,1.61-8.6,4.71L743.08,616.65L534.62,274.22c-1.86-3.06-5.14-4.73-8.48-4.71c-3.38-0.06-6.71,1.61-8.6,4.71
		L309.08,616.65L100.62,274.22c-1.86-3.06-5.14-4.73-8.48-4.71c-3.38-0.06-6.71,1.61-8.6,4.71l-216.94,356.36
		c-2.82,4.64-1.35,10.69,3.29,13.52c1.6,0.97,3.36,1.44,5.11,1.44c3.32,0,6.56-1.68,8.41-4.72L92.08,298.03l207.83,341.39
		c0.77,1.88,2.11,3.54,3.98,4.67c1.6,0.97,3.36,1.44,5.11,1.44c0.03,0,0.06-0.01,0.09-0.01c0.03,0,0.06,0.01,0.09,0.01
		c1.74,0,3.51-0.46,5.11-1.44c1.86-1.13,3.21-2.79,3.97-4.67l207.83-341.39l207.83,341.39c0.77,1.88,2.11,3.54,3.98,4.67
		c1.6,0.97,3.36,1.44,5.11,1.44c0.03,0,0.06-0.01,0.09-0.01c0.03,0,0.06,0.01,0.09,0.01c1.74,0,3.51-0.46,5.11-1.44
		c1.86-1.13,3.21-2.79,3.97-4.67l207.83-341.39l207.83,341.39c0.77,1.88,2.11,3.54,3.98,4.67c1.6,0.97,3.36,1.44,5.11,1.44
		c0.03,0,0.06-0.01,0.09-0.01c0.03,0,0.06,0.01,0.09,0.01c1.74,0,3.51-0.46,5.11-1.44c1.86-1.13,3.21-2.79,3.97-4.67l207.83-341.39
		l207.83,341.39c0.77,1.88,2.11,3.54,3.98,4.67c1.6,0.97,3.36,1.44,5.11,1.44c0.03,0,0.06-0.01,0.09-0.01
		c0.03,0,0.06,0.01,0.09,0.01c1.74,0,3.51-0.46,5.11-1.44c1.86-1.13,3.21-2.79,3.97-4.67l207.83-341.39l208.68,342.78
		c1.85,3.04,5.09,4.72,8.41,4.72c1.74,0,3.51-0.46,5.11-1.44c4.64-2.83,6.11-8.88,3.29-13.52L1836.62,274.22z"/>
	<path class="st0" d="M1836.62,380.22c-1.86-3.06-5.14-4.73-8.48-4.71c-3.38-0.06-6.71,1.61-8.6,4.71l-208.46,342.43l-208.46-342.43
		c-1.86-3.06-5.14-4.73-8.48-4.71c-3.38-0.06-6.71,1.61-8.6,4.71l-208.46,342.43L968.62,380.22c-1.86-3.06-5.14-4.73-8.48-4.71
		c-3.38-0.06-6.71,1.61-8.6,4.71L743.08,722.65L534.62,380.22c-1.86-3.06-5.14-4.73-8.48-4.71c-3.38-0.06-6.71,1.61-8.6,4.71
		L309.08,722.65L100.62,380.22c-1.86-3.06-5.14-4.73-8.48-4.71c-3.38-0.06-6.71,1.61-8.6,4.71l-216.94,356.36
		c-2.82,4.64-1.35,10.69,3.29,13.52c1.6,0.97,3.36,1.44,5.11,1.44c3.32,0,6.56-1.68,8.41-4.72L92.08,404.03l207.83,341.39
		c0.77,1.88,2.11,3.54,3.98,4.67c1.6,0.97,3.36,1.44,5.11,1.44c0.03,0,0.06-0.01,0.09-0.01c0.03,0,0.06,0.01,0.09,0.01
		c1.74,0,3.51-0.46,5.11-1.44c1.86-1.13,3.21-2.79,3.97-4.67l207.83-341.39l207.83,341.39c0.77,1.88,2.11,3.54,3.98,4.67
		c1.6,0.97,3.36,1.44,5.11,1.44c0.03,0,0.06-0.01,0.09-0.01c0.03,0,0.06,0.01,0.09,0.01c1.74,0,3.51-0.46,5.11-1.44
		c1.86-1.13,3.21-2.79,3.97-4.67l207.83-341.39l207.83,341.39c0.77,1.88,2.11,3.54,3.98,4.67c1.6,0.97,3.36,1.44,5.11,1.44
		c0.03,0,0.06-0.01,0.09-0.01c0.03,0,0.06,0.01,0.09,0.01c1.74,0,3.51-0.46,5.11-1.44c1.86-1.13,3.21-2.79,3.97-4.67l207.83-341.39
		l207.83,341.39c0.77,1.88,2.11,3.54,3.98,4.67c1.6,0.97,3.36,1.44,5.11,1.44c0.03,0,0.06-0.01,0.09-0.01
		c0.03,0,0.06,0.01,0.09,0.01c1.74,0,3.51-0.46,5.11-1.44c1.86-1.13,3.21-2.79,3.97-4.67l207.83-341.39l208.68,342.78
		c1.85,3.04,5.09,4.72,8.41,4.72c1.74,0,3.51-0.46,5.11-1.44c4.64-2.83,6.11-8.88,3.29-13.52L1836.62,380.22z"/>
	<path class="st0" d="M1836.62,486.22c-1.86-3.06-5.14-4.73-8.48-4.71c-3.38-0.06-6.71,1.61-8.6,4.71l-208.46,342.43l-208.46-342.43
		c-1.86-3.06-5.14-4.73-8.48-4.71c-3.38-0.06-6.71,1.61-8.6,4.71l-208.46,342.43L968.62,486.22c-1.86-3.06-5.14-4.73-8.48-4.71
		c-3.38-0.06-6.71,1.61-8.6,4.71L743.08,828.65L534.62,486.22c-1.86-3.06-5.14-4.73-8.48-4.71c-3.38-0.06-6.71,1.61-8.6,4.71
		L309.08,828.65L100.62,486.22c-1.86-3.06-5.14-4.73-8.48-4.71c-3.38-0.06-6.71,1.61-8.6,4.71l-216.94,356.36
		c-2.82,4.64-1.35,10.69,3.29,13.52c1.6,0.97,3.36,1.44,5.11,1.44c3.32,0,6.56-1.68,8.41-4.72L92.08,510.03l207.83,341.39
		c0.77,1.88,2.11,3.54,3.98,4.67c1.6,0.97,3.36,1.44,5.11,1.44c0.03,0,0.06-0.01,0.09-0.01c0.03,0,0.06,0.01,0.09,0.01
		c1.74,0,3.51-0.46,5.11-1.44c1.86-1.13,3.21-2.79,3.97-4.67l207.83-341.39l207.83,341.39c0.77,1.88,2.11,3.54,3.98,4.67
		c1.6,0.97,3.36,1.44,5.11,1.44c0.03,0,0.06-0.01,0.09-0.01c0.03,0,0.06,0.01,0.09,0.01c1.74,0,3.51-0.46,5.11-1.44
		c1.86-1.13,3.21-2.79,3.97-4.67l207.83-341.39l207.83,341.39c0.77,1.88,2.11,3.54,3.98,4.67c1.6,0.97,3.36,1.44,5.11,1.44
		c0.03,0,0.06-0.01,0.09-0.01c0.03,0,0.06,0.01,0.09,0.01c1.74,0,3.51-0.46,5.11-1.44c1.86-1.13,3.21-2.79,3.97-4.67l207.83-341.39
		l207.83,341.39c0.77,1.88,2.11,3.54,3.98,4.67c1.6,0.97,3.36,1.44,5.11,1.44c0.03,0,0.06-0.01,0.09-0.01
		c0.03,0,0.06,0.01,0.09,0.01c1.74,0,3.51-0.46,5.11-1.44c1.86-1.13,3.21-2.79,3.97-4.67l207.83-341.39l208.68,342.78
		c1.85,3.04,5.09,4.72,8.41,4.72c1.74,0,3.51-0.46,5.11-1.44c4.64-2.83,6.11-8.88,3.29-13.52L1836.62,486.22z"/>
	<path class="st0" d="M1836.62,592.22c-1.86-3.06-5.14-4.73-8.48-4.71c-3.38-0.06-6.71,1.61-8.6,4.71l-208.46,342.43l-208.46-342.43
		c-1.86-3.06-5.14-4.73-8.48-4.71c-3.38-0.06-6.71,1.61-8.6,4.71l-208.46,342.43L968.62,592.22c-1.86-3.06-5.14-4.73-8.48-4.71
		c-3.38-0.06-6.71,1.61-8.6,4.71L743.08,934.65L534.62,592.22c-1.86-3.06-5.14-4.73-8.48-4.71c-3.38-0.06-6.71,1.61-8.6,4.71
		L309.08,934.65L100.62,592.22c-1.86-3.06-5.14-4.73-8.48-4.71c-3.38-0.06-6.71,1.61-8.6,4.71l-216.94,356.36
		c-2.82,4.64-1.35,10.69,3.29,13.52c1.6,0.97,3.36,1.44,5.11,1.44c3.32,0,6.56-1.68,8.41-4.72L92.08,616.03l207.83,341.39
		c0.77,1.88,2.11,3.54,3.98,4.67c1.6,0.97,3.36,1.44,5.11,1.44c0.03,0,0.06-0.01,0.09-0.01c0.03,0,0.06,0.01,0.09,0.01
		c1.74,0,3.51-0.46,5.11-1.44c1.86-1.13,3.21-2.79,3.97-4.67l207.83-341.39l207.83,341.39c0.77,1.88,2.11,3.54,3.98,4.67
		c1.6,0.97,3.36,1.44,5.11,1.44c0.03,0,0.06-0.01,0.09-0.01c0.03,0,0.06,0.01,0.09,0.01c1.74,0,3.51-0.46,5.11-1.44
		c1.86-1.13,3.21-2.79,3.97-4.67l207.83-341.39l207.83,341.39c0.77,1.88,2.11,3.54,3.98,4.67c1.6,0.97,3.36,1.44,5.11,1.44
		c0.03,0,0.06-0.01,0.09-0.01c0.03,0,0.06,0.01,0.09,0.01c1.74,0,3.51-0.46,5.11-1.44c1.86-1.13,3.21-2.79,3.97-4.67l207.83-341.39
		l207.83,341.39c0.77,1.88,2.11,3.54,3.98,4.67c1.6,0.97,3.36,1.44,5.11,1.44c0.03,0,0.06-0.01,0.09-0.01
		c0.03,0,0.06,0.01,0.09,0.01c1.74,0,3.51-0.46,5.11-1.44c1.86-1.13,3.21-2.79,3.97-4.67l207.83-341.39l208.68,342.78
		c1.85,3.04,5.09,4.72,8.41,4.72c1.74,0,3.51-0.46,5.11-1.44c4.64-2.83,6.11-8.88,3.29-13.52L1836.62,592.22z"/>
	<path class="st0" d="M1836.62,698.22c-1.86-3.06-5.14-4.73-8.48-4.71c-3.38-0.06-6.71,1.61-8.6,4.71l-208.46,342.43l-208.46-342.43
		c-1.86-3.06-5.14-4.73-8.48-4.71c-3.38-0.06-6.71,1.61-8.6,4.71l-208.46,342.43L968.62,698.22c-1.86-3.06-5.14-4.73-8.48-4.71
		c-3.38-0.06-6.71,1.61-8.6,4.71l-208.46,342.43L534.62,698.22c-1.86-3.06-5.14-4.73-8.48-4.71c-3.38-0.06-6.71,1.61-8.6,4.71
		l-208.46,342.43L100.62,698.22c-1.86-3.06-5.14-4.73-8.48-4.71c-3.38-0.06-6.71,1.61-8.6,4.71l-216.94,356.36
		c-2.82,4.64-1.35,10.69,3.29,13.52c1.6,0.97,3.36,1.44,5.11,1.44c3.32,0,6.56-1.68,8.41-4.72L92.08,722.03l207.83,341.39
		c0.77,1.88,2.11,3.54,3.98,4.67c1.6,0.97,3.36,1.44,5.11,1.44c0.03,0,0.06-0.01,0.09-0.01c0.03,0,0.06,0.01,0.09,0.01
		c1.74,0,3.51-0.46,5.11-1.44c1.86-1.14,3.21-2.79,3.97-4.67l207.83-341.39l207.83,341.39c0.77,1.88,2.11,3.54,3.98,4.67
		c1.6,0.97,3.36,1.44,5.11,1.44c0.03,0,0.06-0.01,0.09-0.01c0.03,0,0.06,0.01,0.09,0.01c1.74,0,3.51-0.46,5.11-1.44
		c1.86-1.14,3.21-2.79,3.97-4.67l207.83-341.39l207.83,341.39c0.77,1.88,2.11,3.54,3.98,4.67c1.6,0.97,3.36,1.44,5.11,1.44
		c0.03,0,0.06-0.01,0.09-0.01c0.03,0,0.06,0.01,0.09,0.01c1.74,0,3.51-0.46,5.11-1.44c1.86-1.14,3.21-2.79,3.97-4.67l207.83-341.39
		l207.83,341.39c0.77,1.88,2.11,3.54,3.98,4.67c1.6,0.97,3.36,1.44,5.11,1.44c0.03,0,0.06-0.01,0.09-0.01
		c0.03,0,0.06,0.01,0.09,0.01c1.74,0,3.51-0.46,5.11-1.44c1.86-1.14,3.21-2.79,3.97-4.67l207.83-341.39l208.68,342.78
		c1.85,3.04,5.09,4.72,8.41,4.72c1.74,0,3.51-0.46,5.11-1.44c4.64-2.83,6.11-8.88,3.29-13.52L1836.62,698.22z"/>
	<path class="st0" d="M1836.62,804.22c-1.86-3.06-5.14-4.73-8.48-4.71c-3.38-0.06-6.71,1.61-8.6,4.71l-208.46,342.43l-208.46-342.43
		c-1.86-3.06-5.14-4.73-8.48-4.71c-3.38-0.06-6.71,1.61-8.6,4.71l-208.46,342.43L968.62,804.22c-1.86-3.06-5.14-4.73-8.48-4.71
		c-3.38-0.06-6.71,1.61-8.6,4.71l-208.46,342.43L534.62,804.22c-1.86-3.06-5.14-4.73-8.48-4.71c-3.38-0.06-6.71,1.61-8.6,4.71
		l-208.46,342.43L100.62,804.22c-1.86-3.06-5.14-4.73-8.48-4.71c-3.38-0.06-6.71,1.61-8.6,4.71l-216.94,356.36
		c-2.82,4.64-1.35,10.69,3.29,13.52c1.6,0.97,3.36,1.44,5.11,1.44c3.32,0,6.56-1.68,8.41-4.72L92.08,828.03l207.83,341.39
		c0.77,1.88,2.11,3.54,3.98,4.67c1.6,0.97,3.36,1.44,5.11,1.44c0.03,0,0.06-0.01,0.09-0.01c0.03,0,0.06,0.01,0.09,0.01
		c1.74,0,3.51-0.46,5.11-1.44c1.86-1.14,3.21-2.79,3.97-4.67l207.83-341.39l207.83,341.39c0.77,1.88,2.11,3.54,3.98,4.67
		c1.6,0.97,3.36,1.44,5.11,1.44c0.03,0,0.06-0.01,0.09-0.01c0.03,0,0.06,0.01,0.09,0.01c1.74,0,3.51-0.46,5.11-1.44
		c1.86-1.14,3.21-2.79,3.97-4.67l207.83-341.39l207.83,341.39c0.77,1.88,2.11,3.54,3.98,4.67c1.6,0.97,3.36,1.44,5.11,1.44
		c0.03,0,0.06-0.01,0.09-0.01c0.03,0,0.06,0.01,0.09,0.01c1.74,0,3.51-0.46,5.11-1.44c1.86-1.14,3.21-2.79,3.97-4.67l207.83-341.39
		l207.83,341.39c0.77,1.88,2.11,3.54,3.98,4.67c1.6,0.97,3.36,1.44,5.11,1.44c0.03,0,0.06-0.01,0.09-0.01
		c0.03,0,0.06,0.01,0.09,0.01c1.74,0,3.51-0.46,5.11-1.44c1.86-1.14,3.21-2.79,3.97-4.67l207.83-341.39l208.68,342.78
		c1.85,3.04,5.09,4.72,8.41,4.72c1.74,0,3.51-0.46,5.11-1.44c4.64-2.83,6.11-8.88,3.29-13.52L1836.62,804.22z"/>
	<path class="st0" d="M1836.62,910.22c-1.86-3.06-5.14-4.73-8.48-4.71c-3.38-0.06-6.71,1.61-8.6,4.71l-208.46,342.43l-208.46-342.43
		c-1.86-3.06-5.14-4.73-8.48-4.71c-3.38-0.06-6.71,1.61-8.6,4.71l-208.46,342.43L968.62,910.22c-1.86-3.06-5.14-4.73-8.48-4.71
		c-3.38-0.06-6.71,1.61-8.6,4.71l-208.46,342.43L534.62,910.22c-1.86-3.06-5.14-4.73-8.48-4.71c-3.38-0.06-6.71,1.61-8.6,4.71
		l-208.46,342.43L100.62,910.22c-1.86-3.06-5.14-4.73-8.48-4.71c-3.38-0.06-6.71,1.61-8.6,4.71l-216.94,356.36
		c-2.82,4.64-1.35,10.69,3.29,13.52c1.6,0.97,3.36,1.44,5.11,1.44c3.32,0,6.56-1.68,8.41-4.72L92.08,934.03l207.83,341.39
		c0.77,1.88,2.11,3.54,3.98,4.67c1.6,0.97,3.36,1.44,5.11,1.44c0.03,0,0.06-0.01,0.09-0.01c0.03,0,0.06,0.01,0.09,0.01
		c1.74,0,3.51-0.46,5.11-1.44c1.86-1.14,3.21-2.79,3.97-4.67l207.83-341.39l207.83,341.39c0.77,1.88,2.11,3.54,3.98,4.67
		c1.6,0.97,3.36,1.44,5.11,1.44c0.03,0,0.06-0.01,0.09-0.01c0.03,0,0.06,0.01,0.09,0.01c1.74,0,3.51-0.46,5.11-1.44
		c1.86-1.14,3.21-2.79,3.97-4.67l207.83-341.39l207.83,341.39c0.77,1.88,2.11,3.54,3.98,4.67c1.6,0.97,3.36,1.44,5.11,1.44
		c0.03,0,0.06-0.01,0.09-0.01c0.03,0,0.06,0.01,0.09,0.01c1.74,0,3.51-0.46,5.11-1.44c1.86-1.14,3.21-2.79,3.97-4.67l207.83-341.39
		l207.83,341.39c0.77,1.88,2.11,3.54,3.98,4.67c1.6,0.97,3.36,1.44,5.11,1.44c0.03,0,0.06-0.01,0.09-0.01
		c0.03,0,0.06,0.01,0.09,0.01c1.74,0,3.51-0.46,5.11-1.44c1.86-1.14,3.21-2.79,3.97-4.67l207.83-341.39l208.68,342.78
		c1.85,3.04,5.09,4.72,8.41,4.72c1.74,0,3.51-0.46,5.11-1.44c4.64-2.83,6.11-8.88,3.29-13.52L1836.62,910.22z"/>
</g>
</svg>
