<?xml version="1.0" encoding="utf-8"?>
<!-- Generator: Adobe Illustrator 25.2.1, SVG Export Plug-In . SVG Version: 6.00 Build 0)  -->
<svg version="1.1" id="Capa_1" xmlns="http://www.w3.org/2000/svg" xmlns:xlink="http://www.w3.org/1999/xlink" x="0px" y="0px"
	 viewBox="0 0 848 194" style="enable-background:new 0 0 848 194;" xml:space="preserve">
<style type="text/css">
	.st0{fill:#F2F2F2;}
	.st1{fill:#B3B3B3;}
	.st2{fill:#A6120D;}
	.st3{fill:#DD1B16;}
</style>
<g>
	<path class="st0" d="M219.5,100.6h-29.3l-5.4,14.9h-9.3l24.3-66.8H210l24.2,66.8h-9.3L219.5,100.6z M204.9,59.5l-12.2,33.9H217
		L204.9,59.5z"/>
	<path class="st0" d="M283.4,85.7c0-10.8-5.9-16.3-14.8-16.3c-9,0-15.1,5.6-15.1,17v29.2h-8.8V62.7h8.8v7.5c3.5-5.5,9.8-8.5,17-8.5
		c12.2,0,21.6,7.5,21.6,22.7v31.1h-8.7V85.7z"/>
	<path class="st0" d="M328.3,61.9c9.6,0,16.6,4.8,19.7,10.5v-9.6h8.9v54c0,14.6-9.7,24.9-25.3,24.9c-13.9,0-23.8-7-25.6-18.3h8.7
		c1.9,6.4,8.2,10.7,16.9,10.7c9.4,0,16.4-6,16.4-17.3v-11.1c-3.2,5.7-10,10.8-19.7,10.8c-14.2,0-25.1-11.1-25.1-27.5
		C303.2,72.5,314.1,61.9,328.3,61.9z M330,69.5c-9.6,0-17.8,7-17.8,19.5c0,12.4,8.2,19.8,17.8,19.8c9.6,0,17.9-7.2,17.9-19.7
		C348,76.8,339.7,69.5,330,69.5z"/>
	<path class="st0" d="M418.5,115.6h-8.8v-7.8c-3.4,5.5-9.8,8.6-16.9,8.6c-12.1,0-21.7-7.5-21.7-22.7v-31h8.7v29.8
		c0,10.7,5.9,16.2,14.8,16.2c9.1,0,15.1-5.6,15.1-17v-29h8.8V115.6z"/>
	<path class="st0" d="M433.4,44.2h8.8v71.4h-8.8V44.2z"/>
	<path class="st0" d="M478.9,61.9c9.8,0,16.6,5,19.7,10.5v-9.6h8.9v52.8h-8.9v-9.8c-3.2,5.7-10,10.7-19.8,10.7
		c-14.1,0-25-11.1-25-27.5C453.8,72.5,464.7,61.9,478.9,61.9z M480.6,69.5c-9.6,0-17.8,7-17.8,19.5c0,12.4,8.2,19.8,17.8,19.8
		c9.6,0,17.9-7.2,17.9-19.7C498.6,76.8,490.3,69.5,480.6,69.5z"/>
	<path class="st0" d="M531.1,115.6h-8.8V62.7h8.8v8.6c3-5.9,8.7-9.5,17.1-9.5v9.1h-2.3c-8.4,0-14.8,3.8-14.8,16V115.6z"/>
	<path class="st0" d="M611.1,48.3v67.3h-8.8L567,62v53.5h-8.8V48.3h8.8l35.3,53.4V48.3H611.1z"/>
	<path class="st0" d="M648.9,116.4c-15,0-26.1-10.6-26.1-27.4c0-16.7,10.7-27.2,26.1-27.2c15.3,0,25.4,10.8,25.4,25.3
		c0,1.9-0.1,3.5-0.3,5.3h-42.2c0.7,10.7,8.2,16.6,17.2,16.6c7.9,0,12.9-4,14.8-9.7h9.5C670.5,108.9,662,116.4,648.9,116.4z
		 M631.9,85.3h33.4c0.1-10.3-7.6-16-16.7-16C639.9,69.3,632.8,75,631.9,85.3z"/>
	<path class="st0" d="M694.6,115.6h-8.8V62.7h8.8v8.6c3-5.9,8.7-9.5,17.1-9.5v9.1h-2.3c-8.4,0-14.8,3.8-14.8,16V115.6z"/>
	<path class="st0" d="M743.7,61.9c8.3,0,15.9,4.2,19.6,10.3v-28h8.9v71.4h-8.9v-9.9c-3.2,5.9-10,10.8-19.7,10.8
		c-14.2,0-25.1-11.1-25.1-27.5C718.5,72.5,729.4,61.9,743.7,61.9z M745.3,69.5c-9.6,0-17.8,7-17.8,19.5c0,12.4,8.2,19.8,17.8,19.8
		c9.6,0,17.9-7.2,17.9-19.7C763.3,76.8,755,69.5,745.3,69.5z"/>
	<path class="st0" d="M805.7,116.4c-12.3,0-21-6.7-21.6-16.4h9.1c0.5,5.1,5,9,12.4,9c6.9,0,10.8-3.5,10.8-7.8
		c0-11.8-31.2-4.9-31.2-24.6c0-8.1,7.6-14.8,19.4-14.8c11.7,0,19.4,6.3,20,16.6h-8.8c-0.4-5.3-4.4-9.2-11.5-9.2
		c-6.5,0-10.3,3.1-10.3,7.3c0,12.5,30.7,5.7,31,24.6C825,109.9,817.4,116.4,805.7,116.4z"/>
</g>
<path class="st1" d="M94.3,17L25.6,41.2l10.9,90L94.4,163l58.2-32.3l10.9-90L94.3,17z"/>
<path class="st2" d="M156.6,45.9L94.1,24.7v130.7l52.3-29L156.6,45.9L156.6,45.9z"/>
<path class="st3" d="M33.3,46.3l9.3,80.5l51.5,28.6V24.7L33.3,46.3L33.3,46.3z"/>
<path class="st0" d="M111.3,94.3l-17.2,8H76l-8.5,21.3l-15.8,0.3l42.5-94.5L111.3,94.3L111.3,94.3z M109.6,90.2L94.2,59.7l-12.6,30
	h12.5L109.6,90.2L109.6,90.2z"/>
<path class="st1" d="M94.1,29.4l0.1,30.3l14.3,30H94.2l0,12.6l19.9,0l9.3,21.6l15.2,0.3L94.1,29.4L94.1,29.4z"/>
<g>
	<path class="st0" d="M630.5,147.9l5.4-3.9l1.6,2.9l-6.2,2.6l6.3,2.5l-1.7,3l-5.4-3.9l0.7,6.7l-3.4,0l0.7-6.7l-5.4,4l-1.7-3l6.2-2.6
		l-6.2-2.5l1.7-3l5.5,4l-0.7-6.8l3.4,0L630.5,147.9z"/>
	<path class="st0" d="M661.8,160c0-5-2.7-7.5-6.8-7.5c-4.2,0-7,2.6-7,7.9l0,13.5l-4.1,0l0-24.5l4.1,0l0,3.5c1.6-2.5,4.6-3.9,7.9-3.9
		c5.7,0,10,3.5,10,10.5l0,14.4l-4,0L661.8,160z"/>
	<path class="st0" d="M682.5,149c4.5,0,7.7,2.2,9.1,4.9l0-4.5l4.1,0l0,25c0,6.7-4.5,11.5-11.7,11.5c-6.4,0-11-3.2-11.8-8.5l4,0
		c0.9,2.9,3.8,5,7.8,5c4.3,0,7.6-2.8,7.6-8l0-5.1c-1.5,2.6-4.6,5-9.1,5c-6.6,0-11.6-5.1-11.6-12.7C670.9,153.9,676,149,682.5,149z
		 M683.3,152.5c-4.5,0-8.3,3.3-8.3,9c0,5.8,3.8,9.2,8.3,9.2c4.5,0,8.3-3.4,8.3-9.1C691.7,155.9,687.8,152.5,683.3,152.5z"/>
	<path class="st0" d="M727.1,142.6l0,31.2l-4.1,0L706.7,149l0,24.8l-4.1,0l0-31.2l4.1,0l16.4,24.7l0-24.8L727.1,142.6z"/>
	<path class="st0" d="M744.7,174.2c-7,0-12.1-4.9-12.1-12.7c0-7.7,4.9-12.6,12.1-12.6c7.1,0,11.8,5,11.8,11.7c0,0.9,0,1.6-0.1,2.5
		l-19.6,0c0.3,5,3.8,7.7,8,7.7c3.7,0,6-1.9,6.9-4.5l4.4,0C754.7,170.7,750.7,174.2,744.7,174.2z M736.7,159.8l15.5,0
		c0-4.8-3.5-7.4-7.7-7.4C740.5,152.4,737.2,155,736.7,159.8z"/>
	<path class="st0" d="M758.8,149.3l4.2,0l5.7,20.5l6.1-20.6l4.2,0l6,20.6l5.5-20.6l4,0l-7.6,24.5l-4.2,0l-5.9-19.4l-5.9,19.4l-4.2,0
		L758.8,149.3z"/>
	<path class="st0" d="M807.1,174.1c-5.7,0-9.7-3.1-10-7.6l4.2,0c0.2,2.4,2.3,4.2,5.8,4.1c3.2,0,5-1.6,5-3.6
		c0-5.5-14.5-2.3-14.5-11.4c0-3.8,3.5-6.8,9-6.8c5.4,0,9,2.9,9.3,7.7l-4.1,0c-0.2-2.5-2.1-4.2-5.3-4.2c-3,0-4.8,1.4-4.8,3.4
		c0,5.8,14.2,2.6,14.4,11.4C816,171.1,812.5,174.1,807.1,174.1z"/>
</g>
</svg>
